<?xml version="1.0" standalone="no"?>
<!DOCTYPE svg PUBLIC "-//W3C//DTD SVG 20010904//EN"
 "http://www.w3.org/TR/2001/REC-SVG-20010904/DTD/svg10.dtd">
<svg version="1.0" xmlns="http://www.w3.org/2000/svg"
 width="683.000000pt" height="683.000000pt" viewBox="0 0 683.000000 683.000000"
 preserveAspectRatio="xMidYMid meet">
<metadata>
Created by potrace 1.11, written by Peter Selinger 2001-2013
</metadata>
<g transform="translate(0.000000,683.000000) scale(0.100000,-0.100000)"
fill="#000000" stroke="none">
<path d="M3268 5605 c-1 -1 -37 -5 -78 -8 -41 -3 -115 -13 -165 -22 -577 -107
-1073 -437 -1398 -930 -134 -203 -262 -519 -302 -740 -52 -297 -52 -556 0
-817 49 -241 111 -406 244 -653 68 -127 198 -293 335 -431 174 -173 334 -290
546 -398 63 -32 118 -63 122 -70 5 -8 8 -7 8 3 0 10 3 11 14 2 17 -14 202 -82
231 -85 11 -1 27 -6 35 -11 8 -5 26 -10 40 -11 14 -1 25 -2 25 -3 0 -4 39 -12
63 -13 12 0 22 -4 22 -8 0 -4 13 -6 29 -5 32 3 60 -10 48 -22 -5 -4 -12 -1
-17 7 -9 13 -10 13 -10 0 0 -13 -1 -13 -10 0 -9 13 -10 13 -10 0 0 -12 -2 -12
-9 -2 -7 11 -9 11 -14 -2 -4 -9 -12 -16 -19 -15 -10 0 -10 2 0 6 6 2 12 9 12
14 0 6 -5 7 -12 3 -6 -4 -8 -3 -5 3 4 6 -4 9 -18 7 -14 -1 -25 3 -25 9 0 8 -4
7 -9 -2 -7 -11 -11 -10 -20 5 -6 11 -11 14 -12 7 -1 -7 -2 -18 -3 -25 0 -6 -7
-13 -15 -16 -8 -3 -11 0 -8 5 3 5 -13 9 -38 9 -25 0 -43 -2 -40 -4 11 -11 -16
-40 -34 -35 -10 3 -22 0 -25 -6 -4 -6 -12 -11 -18 -11 -6 0 -3 10 8 23 39 44
57 78 45 90 -6 6 -11 7 -11 2 0 -6 -5 -3 -11 5 -9 13 -10 13 -6 0 2 -8 10 -14
16 -13 16 4 14 -12 -4 -27 -8 -7 -15 -17 -15 -22 0 -9 -29 -43 -31 -36 -7 29
-4 40 12 48 20 11 26 30 8 30 -5 0 -7 -5 -3 -11 4 -8 -1 -9 -17 -5 -13 3 -18
3 -11 0 10 -5 10 -9 0 -22 -7 -8 -12 -18 -12 -21 1 -3 -1 -12 -4 -19 -3 -10
-9 -9 -23 4 -25 23 -24 9 0 -15 20 -20 20 -20 26 0 4 10 10 17 15 14 5 -3 7
-12 3 -20 -6 -17 22 -21 32 -5 11 18 35 11 29 -7 -4 -14 -1 -13 13 4 15 19 21
20 35 9 10 -7 14 -17 10 -22 -4 -4 0 -3 8 2 23 17 52 14 45 -5 -4 -11 0 -9 16
4 21 20 21 20 40 -4 10 -13 19 -19 19 -14 0 5 -5 14 -12 21 -9 9 -7 12 13 13
13 1 28 1 32 0 5 -1 6 3 2 9 -3 5 -1 10 5 10 6 0 10 -8 8 -17 -2 -11 -11 -17
-23 -15 -16 2 -17 1 -5 -7 9 -7 18 -7 24 -1 16 16 30 11 16 -5 -9 -10 -9 -15
-1 -15 6 0 11 4 11 10 0 5 8 7 18 3 14 -5 13 -3 -3 11 l-20 17 20 -3 c11 -1
26 1 33 5 6 5 12 4 12 -2 0 -5 -4 -13 -10 -16 -5 -3 -10 -14 -9 -23 0 -12 3
-11 9 6 5 12 14 22 20 22 6 0 9 -4 5 -9 -7 -13 12 -24 27 -15 7 5 5 11 -8 21
-19 14 -19 15 1 11 11 -2 25 -14 32 -28 9 -18 13 -20 13 -7 0 20 11 22 28 5 9
-9 12 -9 13 2 1 8 1 18 0 23 -1 9 13 9 22 0 4 -3 2 -12 -4 -19 -7 -8 -7 -14 1
-19 6 -4 9 -1 8 6 -2 6 3 14 11 17 8 2 11 0 7 -6 -3 -5 1 -12 9 -15 12 -5 11
0 -2 29 -12 23 -19 30 -25 22 -6 -10 -8 -10 -8 1 0 10 -3 11 -14 2 -8 -7 -17
-8 -20 -3 -5 8 27 24 38 19 1 -1 10 4 18 10 12 10 19 10 34 -1 13 -10 23 -11
31 -4 9 7 13 7 13 -2 0 -9 4 -9 17 1 11 10 14 10 9 2 -4 -7 -3 -13 1 -13 5 0
15 6 22 13 11 10 13 10 7 0 -4 -8 -1 -13 8 -13 9 0 16 6 17 13 0 6 5 2 11 -10
6 -13 15 -23 20 -23 10 0 6 23 -6 32 -5 3 2 5 17 5 14 -1 23 -5 20 -9 -2 -5 1
-8 6 -8 6 0 11 -5 11 -12 0 -6 -3 -8 -6 -5 -4 3 -16 1 -27 -5 -16 -8 -23 -7
-34 8 -7 10 -13 12 -13 6 0 -14 -21 -12 -32 3 -5 6 -8 6 -8 -2 0 -6 -8 -10
-17 -8 -10 1 -26 -2 -37 -7 -12 -7 -16 -7 -12 0 4 7 -2 9 -15 7 -18 -4 -19 -2
-7 12 11 14 11 16 -2 11 -19 -6 -20 -34 -1 -30 8 2 11 -3 8 -12 -4 -10 -1 -13
9 -9 7 3 14 1 14 -5 0 -6 -6 -13 -12 -15 -10 -4 -10 -6 -1 -6 7 -1 19 11 27
27 8 15 16 24 17 20 1 -5 2 -11 3 -15 1 -5 7 -17 13 -28 9 -15 13 -16 14 -5 1
8 1 19 0 24 -1 5 5 6 13 3 11 -4 13 -1 9 11 -6 15 -5 15 10 3 9 -7 14 -17 11
-22 -3 -5 0 -9 6 -9 6 0 8 -5 4 -12 -5 -9 -2 -9 9 1 18 15 23 26 7 16 -5 -3
-10 -1 -10 5 0 6 8 10 18 8 11 -2 26 3 35 11 10 7 17 9 17 3 0 -6 -12 -19 -27
-30 -20 -15 -23 -21 -12 -27 8 -5 11 -5 7 0 -4 4 4 16 17 27 23 18 26 18 50 2
13 -9 22 -21 18 -27 -3 -6 -1 -7 6 -3 8 6 9 12 2 20 -11 13 -5 26 11 26 5 0 6
-4 3 -10 -3 -5 -1 -10 5 -10 8 0 9 7 5 17 -5 10 -8 26 -9 36 0 17 -1 17 -13 1
-8 -11 -13 -13 -13 -5 0 7 -5 9 -11 5 -8 -5 -6 -10 5 -16 9 -5 14 -13 11 -19
-9 -13 -25 -11 -22 3 1 7 -5 12 -13 13 -8 0 -15 7 -15 15 0 8 -4 19 -10 23 -5
5 1 5 14 2 17 -5 22 -4 16 5 -6 9 -4 11 6 4 21 -13 39 -14 39 -1 0 5 3 7 8 3
4 -4 7 -18 7 -29 0 -12 7 -23 15 -23 32 -3 34 -5 20 -14 -8 -5 -11 -12 -7 -17
5 -4 12 -1 18 7 8 13 12 12 24 -4 8 -11 15 -15 15 -8 0 6 -10 18 -22 26 -17
12 -18 16 -6 16 8 0 21 -6 28 -14 6 -8 19 -12 27 -9 11 4 14 2 9 -5 -4 -7 -2
-12 4 -12 7 0 10 7 7 15 -4 8 -2 17 3 20 9 6 14 -8 11 -28 -1 -5 4 -5 10 -1 9
5 10 2 6 -9 -9 -25 0 -21 19 8 12 18 13 29 6 38 -7 8 -7 18 -2 27 6 8 10 12
11 8 1 -5 3 -12 4 -18 1 -5 3 -15 4 -21 0 -6 8 -9 16 -6 8 4 17 2 20 -3 6 -10
-9 -15 -30 -10 -5 1 -7 -2 -3 -6 4 -4 0 -12 -9 -19 -13 -10 -14 -13 -2 -20 8
-5 11 -4 6 0 -12 14 45 46 60 33 7 -6 13 -6 13 -2 0 5 -9 15 -20 22 -25 15
-26 27 -2 28 9 1 25 5 35 9 14 6 16 3 11 -11 -5 -17 -4 -17 8 1 15 23 42 33
35 13 -2 -7 -10 -12 -16 -11 -6 2 -11 -2 -11 -7 0 -14 13 -13 28 2 18 18 15
-4 -5 -31 -9 -14 -12 -21 -6 -18 6 4 14 1 17 -5 4 -9 5 -8 5 2 -2 24 12 60 23
60 5 0 6 -6 2 -13 -4 -6 2 -3 14 7 12 11 22 14 22 8 0 -6 -11 -19 -25 -30 -29
-23 -31 -29 -10 -29 8 0 13 3 11 6 -2 3 2 12 10 18 8 8 15 9 19 3 8 -13 25 -3
25 13 0 7 -4 6 -10 -3 -10 -16 -12 -14 -13 22 -1 12 4 23 11 26 8 2 10 -2 5
-15 -7 -17 -6 -17 11 -1 23 24 44 23 23 0 -29 -32 -18 -34 14 -3 17 17 40 31
52 33 12 2 21 10 19 17 -2 9 3 11 15 7 14 -6 15 -4 6 5 -13 13 -37 3 -28 -12
4 -5 -3 -9 -14 -9 -11 0 -23 -4 -26 -10 -10 -15 -21 -12 -53 15 -18 15 -40 24
-55 23 -14 -1 -24 -5 -21 -9 2 -4 -4 -13 -13 -20 -14 -12 -15 -11 -8 10 l7 23
-22 -22 c-12 -12 -25 -18 -29 -13 -3 5 -18 8 -33 8 -16 -1 -28 3 -28 8 0 5 11
7 25 5 14 -3 25 -1 25 3 0 5 5 9 11 9 5 0 7 -4 4 -10 -3 -6 1 -7 9 -4 9 3 14
9 11 13 -2 4 1 8 8 9 7 0 22 3 35 6 12 3 30 8 40 11 28 7 203 74 250 96 24 11
48 16 54 13 6 -4 8 -3 5 2 -3 5 20 23 51 39 419 214 781 601 969 1035 92 211
143 412 168 653 7 70 7 338 1 387 -3 19 -8 58 -12 85 -4 28 -8 55 -9 60 -5 52
-52 251 -75 315 -37 108 -72 191 -122 291 -258 518 -736 918 -1293 1081 -83
24 -319 72 -375 77 -47 3 -349 9 -352 6z m317 -69 c93 -7 106 -9 240 -37 91
-19 349 -98 342 -105 -2 -2 -27 0 -56 5 -68 11 -172 4 -241 -16 -63 -17 -85
-29 -308 -166 -89 -54 -168 -96 -175 -93 -6 3 -66 39 -132 80 -186 116 -275
164 -339 180 -60 16 -226 23 -245 11 -6 -3 -11 -1 -11 4 0 6 1 11 3 11 1 0 28
9 60 20 80 28 272 78 332 86 28 3 71 9 97 14 26 4 80 8 120 9 40 1 74 3 75 5
4 4 136 -1 238 -8z m-1170 -263 c-68 -71 -59 -175 21 -249 12 -12 109 -74 216
-139 106 -65 195 -119 197 -121 2 -2 -24 -32 -58 -66 -35 -35 -77 -83 -94
-108 -17 -25 -37 -51 -43 -58 -20 -19 -80 -151 -101 -217 -25 -84 -25 -305 0
-389 43 -139 133 -281 255 -401 l61 -59 -60 -63 c-166 -178 -244 -344 -254
-541 -11 -210 65 -397 239 -588 l64 -70 -192 -117 c-241 -147 -278 -183 -278
-272 0 -47 12 -76 46 -114 l21 -24 -34 18 c-219 111 -499 352 -657 565 -208
280 -340 591 -390 920 -3 19 -8 46 -11 60 -13 60 -11 418 3 515 84 598 404
1113 896 1443 42 29 81 52 87 52 5 0 11 4 13 8 3 9 56 39 71 41 4 1 -4 -11
-18 -26z m2100 -61 c298 -190 556 -480 718 -805 90 -183 157 -383 183 -547 3
-19 7 -42 9 -50 20 -72 27 -406 12 -545 -32 -299 -156 -639 -329 -900 -177
-266 -434 -507 -703 -655 -57 -32 -59 -32 -37 -8 50 55 58 142 18 202 -25 38
-97 90 -279 201 l-165 99 62 67 c122 132 208 292 234 437 22 123 0 297 -53
416 -36 79 -115 194 -188 271 l-67 70 74 75 c122 124 200 248 242 385 26 85
27 305 1 390 -41 131 -113 248 -235 376 -52 56 -63 72 -51 80 8 5 96 60 197
122 101 61 197 126 214 142 66 64 76 143 28 219 l-31 48 38 -23 c21 -12 69
-43 108 -67z m-860 -940 c121 -74 225 -139 232 -145 9 -9 -27 -35 -150 -110
-89 -54 -202 -122 -250 -152 l-88 -54 -107 66 c-59 36 -119 73 -134 82 -116
69 -258 157 -258 161 0 3 62 43 138 89 75 46 187 114 247 151 91 56 113 65
130 57 11 -6 119 -71 240 -145z m-9 -1299 c123 -75 224 -139 224 -144 0 -4
-15 -16 -32 -27 -18 -10 -122 -74 -231 -141 -109 -66 -202 -121 -207 -121 -5
0 -58 30 -117 67 -60 36 -128 78 -153 93 -213 128 -213 128 -188 143 188 120
456 276 466 272 8 -3 115 -67 238 -142z m-208 -1150 c15 -9 50 -31 79 -50 28
-18 56 -33 62 -33 6 0 11 -3 11 -7 0 -5 10 -13 23 -19 12 -6 51 -29 87 -50 36
-22 85 -48 110 -58 25 -10 52 -21 60 -25 8 -4 61 -6 117 -6 57 0 103 -3 103
-7 0 -8 -19 -12 -47 -11 -7 1 -13 -4 -13 -9 0 -6 -7 -8 -15 -4 -8 3 -15 0 -15
-5 0 -7 -11 -9 -25 -7 -13 3 -22 2 -20 -2 6 -10 -29 -19 -60 -16 -13 2 -22 -1
-19 -5 5 -9 0 -10 -56 -13 -14 0 -27 -4 -30 -8 -3 -3 -23 -9 -45 -12 -22 -2
-64 -8 -94 -12 -44 -5 -52 -4 -47 7 5 10 3 9 -6 -1 -16 -18 -82 -25 -71 -7 4
7 -1 6 -10 -2 -10 -8 -20 -11 -24 -8 -3 4 -14 2 -24 -4 -12 -6 -19 -6 -19 0 0
10 -31 7 -53 -5 -6 -4 -3 3 8 17 13 15 14 19 3 11 -9 -7 -30 -17 -47 -22 -28
-8 -31 -6 -31 13 -1 19 -2 20 -10 5 -6 -10 -22 -16 -40 -16 -16 1 -27 4 -25 8
3 4 -3 14 -13 21 -15 13 -16 12 -3 -3 12 -16 9 -22 -11 -19 -4 0 -29 1 -57 2
-28 1 -48 6 -45 11 3 4 0 8 -5 8 -6 0 -11 -4 -11 -9 0 -6 -12 -6 -30 0 -18 7
-27 16 -24 22 4 8 2 7 -7 0 -7 -7 -17 -13 -22 -13 -4 0 -5 6 -1 13 6 9 4 9 -8
-1 -11 -9 -18 -10 -23 -2 -3 6 -11 8 -16 4 -5 -3 -23 1 -39 10 -17 8 -27 10
-24 4 4 -5 -4 -4 -17 3 -13 7 -25 12 -26 11 -11 -7 -23 0 -17 11 5 9 4 9 -6 0
-8 -7 -19 -8 -29 -3 -9 5 -29 12 -46 16 -16 4 -33 8 -37 9 -5 2 -12 3 -18 4
-5 0 -10 4 -10 9 0 4 30 5 66 2 36 -3 67 -4 70 -1 2 2 17 6 34 8 48 5 144 40
197 72 26 15 107 65 178 109 72 45 136 81 143 82 7 0 25 -8 40 -17z m593 -413
c29 -23 19 -26 -21 -5 -25 13 -29 13 -34 0 -3 -8 -3 -21 0 -29 7 -18 -28 -16
-39 2 -5 7 -12 10 -18 7 -5 -4 -9 -1 -9 4 0 6 7 11 15 11 8 0 15 -5 15 -11 0
-7 9 0 21 15 24 31 39 33 70 6z m-198 3 c4 -3 19 -8 33 -9 47 -5 46 -26 0 -26
-14 0 -23 -4 -20 -9 3 -5 0 -9 -6 -9 -7 0 -10 7 -6 15 3 8 -3 19 -13 24 -19
11 -31 5 -31 -13 0 -6 5 -4 10 4 7 11 10 11 10 2 0 -7 5 -10 10 -7 6 4 5 -4
-1 -19 -7 -14 -17 -22 -22 -19 -8 5 -7 8 1 11 7 2 12 8 12 13 0 6 -4 8 -9 4
-6 -3 -14 3 -20 12 -8 14 -10 15 -11 3 0 -13 -1 -13 -10 0 -8 12 -10 10 -7
-10 1 -14 6 -31 11 -38 5 -8 4 -18 -2 -24 -7 -7 -14 -3 -21 11 -11 20 -13 20
-35 5 -22 -14 -25 -14 -38 5 -8 12 -17 18 -20 15 -3 -2 -18 -7 -34 -10 -16 -2
-24 -1 -18 3 6 5 10 15 9 24 -2 11 3 16 14 14 9 -1 23 1 32 6 10 5 21 3 27 -3
8 -8 12 -8 12 -1 0 6 11 11 25 12 14 1 36 2 50 3 14 1 25 6 25 10 0 10 34 11
43 1z m-880 -19 c31 -3 34 -4 34 -19 0 -16 -24 -28 -38 -19 -5 3 -9 -1 -9 -8
0 -10 -2 -10 -9 1 -5 8 -11 9 -15 3 -8 -13 -84 -8 -98 6 -6 6 -7 15 -4 21 10
16 26 13 20 -3 -3 -8 0 -17 6 -21 6 -3 10 -3 9 2 -3 19 2 33 12 33 6 0 9 -7 6
-15 -4 -8 -1 -17 5 -21 7 -4 8 -3 4 4 -10 16 7 15 23 0 10 -11 11 -10 6 3 -4
10 -1 20 4 24 6 3 8 11 5 17 -5 7 -2 8 7 2 8 -5 22 -9 32 -10z m176 -5 c5 7
11 9 14 4 4 -6 23 -9 44 -8 35 2 36 1 15 -13 -21 -14 -22 -16 -6 -33 10 -11
12 -19 6 -19 -7 0 -12 5 -12 11 0 8 -4 8 -14 0 -10 -9 -16 -8 -26 4 -7 8 -9
15 -5 15 5 0 6 3 3 6 -4 3 -15 1 -27 -5 -14 -8 -22 -8 -26 -1 -5 8 -12 7 -23
-2 -12 -10 -14 -10 -8 0 9 15 1 15 -24 2 -13 -7 -19 -6 -24 5 -7 19 2 23 42
19 22 -2 35 2 39 13 5 12 7 12 14 1 8 -11 10 -11 18 1z m876 1 c-3 -5 -10 -10
-16 -10 -5 0 -9 5 -9 10 0 6 7 10 16 10 8 0 12 -4 9 -10z m-635 -65 c-5 -7 -9
-14 -7 -16 1 -2 0 -3 -2 -1 -11 7 -7 29 5 29 9 0 11 -4 4 -12z"/>
<path d="M2986 1528 c3 -5 10 -6 15 -3 13 9 11 12 -6 12 -8 0 -12 -4 -9 -9z"/>
<path d="M3076 1523 c-6 -14 -5 -15 5 -6 7 7 10 15 7 18 -3 3 -9 -2 -12 -12z"/>
<path d="M3773 1525 c0 -8 4 -12 9 -9 5 3 6 10 3 15 -9 13 -12 11 -12 -6z"/>
<path d="M3815 1531 c-3 -5 -2 -12 3 -15 5 -3 9 1 9 9 0 17 -3 19 -12 6z"/>
<path d="M3230 1510 c0 -5 5 -10 11 -10 5 0 7 5 4 10 -3 6 -8 10 -11 10 -2 0
-4 -4 -4 -10z"/>
<path d="M3373 1505 c0 -8 4 -12 9 -9 5 3 6 10 3 15 -9 13 -12 11 -12 -6z"/>
<path d="M3436 1512 c-3 -5 1 -9 9 -9 8 0 12 4 9 9 -3 4 -7 8 -9 8 -2 0 -6 -4
-9 -8z"/>
<path d="M3090 1489 c0 -5 5 -7 10 -4 6 3 10 8 10 11 0 2 -4 4 -10 4 -5 0 -10
-5 -10 -11z"/>
<path d="M3146 1488 c3 -5 10 -6 15 -3 13 9 11 12 -6 12 -8 0 -12 -4 -9 -9z"/>
<path d="M3264 1488 c-3 -4 5 -5 17 -3 30 6 36 14 9 12 -12 -1 -24 -5 -26 -9z"/>
<path d="M3626 1492 c-3 -5 1 -9 9 -9 8 0 12 4 9 9 -3 4 -7 8 -9 8 -2 0 -6 -4
-9 -8z"/>
<path d="M3670 1490 c-12 -7 -10 -9 7 -7 12 0 19 5 17 9 -6 10 -6 10 -24 -2z"/>
<path d="M3560 1481 c0 -7 -5 -9 -12 -5 -7 5 -8 3 -3 -5 5 -9 10 -10 18 -2 6
6 8 14 4 18 -4 3 -7 1 -7 -6z"/>
<path d="M3450 1468 c0 -4 4 -8 9 -8 6 0 12 4 15 8 3 5 -1 9 -9 9 -8 0 -15 -4
-15 -9z"/>
<path d="M3855 1390 c3 -5 8 -10 11 -10 2 0 4 5 4 10 0 6 -5 10 -11 10 -5 0
-7 -4 -4 -10z"/>
<path d="M3657 1384 c-3 -3 -11 -6 -19 -7 -12 -2 -18 -9 -18 -22 0 -3 9 -1 20
5 16 8 21 6 31 -12 11 -21 12 -21 26 -2 17 23 16 23 44 -1 18 -15 20 -15 10
-2 -7 9 -10 17 -6 17 4 0 2 6 -4 14 -12 14 -35 16 -47 3 -4 -4 -12 -2 -19 3
-7 5 -14 7 -18 4z m37 -15 c7 10 31 9 42 -2 4 -3 -3 -5 -14 -2 -12 2 -25 -3
-30 -10 -6 -12 -10 -10 -21 8 -13 20 -13 21 2 9 9 -8 18 -9 21 -3z"/>
<path d="M2913 1376 c-3 -5 -1 -6 5 -2 5 3 13 0 15 -6 4 -10 6 -9 6 1 1 10 4
11 14 2 10 -8 14 -7 14 2 0 15 -45 18 -54 3z"/>
<path d="M3095 1371 c-12 -11 9 -20 26 -10 21 11 34 6 34 -12 0 -11 15 -12 16
-1 0 4 5 12 9 17 6 7 -6 11 -36 11 -25 -1 -47 -3 -49 -5z"/>
<path d="M2230 1629 c0 -5 5 -7 10 -4 6 3 10 8 10 11 0 2 -4 4 -10 4 -5 0 -10
-5 -10 -11z"/>
<path d="M2035 1599 c-4 -6 -5 -12 -2 -15 2 -3 7 2 10 11 7 17 1 20 -8 4z"/>
<path d="M2115 1601 c-3 -5 -2 -12 3 -15 5 -3 9 1 9 9 0 17 -3 19 -12 6z"/>
<path d="M2076 1548 c3 -5 10 -6 15 -3 13 9 11 12 -6 12 -8 0 -12 -4 -9 -9z"/>
<path d="M2516 1528 c3 -5 10 -6 15 -3 13 9 11 12 -6 12 -8 0 -12 -4 -9 -9z"/>
<path d="M4390 1530 c0 -5 5 -10 11 -10 5 0 7 5 4 10 -3 6 -8 10 -11 10 -2 0
-4 -4 -4 -10z"/>
<path d="M4446 1528 c3 -5 10 -6 15 -3 13 9 11 12 -6 12 -8 0 -12 -4 -9 -9z"/>
<path d="M2290 1509 c0 -5 5 -7 10 -4 6 3 10 8 10 11 0 2 -4 4 -10 4 -5 0 -10
-5 -10 -11z"/>
<path d="M4330 1510 c0 -5 5 -10 11 -10 5 0 7 5 4 10 -3 6 -8 10 -11 10 -2 0
-4 -4 -4 -10z"/>
<path d="M4945 1510 c-3 -6 1 -7 9 -4 18 7 21 14 7 14 -6 0 -13 -4 -16 -10z"/>
<path d="M2033 1495 c0 -8 4 -12 9 -9 5 3 6 10 3 15 -9 13 -12 11 -12 -6z"/>
<path d="M2099 1498 c-5 -18 -6 -38 -1 -34 7 8 12 36 6 36 -2 0 -4 -1 -5 -2z"/>
<path d="M2481 1486 c-9 -11 -9 -16 1 -22 7 -4 10 -4 6 1 -4 4 -3 14 3 22 6 7
9 13 6 13 -2 0 -10 -6 -16 -14z"/>
<path d="M4125 1489 c-4 -6 -5 -12 -2 -15 2 -3 7 2 10 11 7 17 1 20 -8 4z"/>
<path d="M4454 1486 c1 -8 5 -18 8 -22 4 -3 5 1 4 10 -1 8 -5 18 -8 22 -4 3
-5 -1 -4 -10z"/>
<path d="M4535 1490 c-3 -5 -1 -10 4 -10 6 0 11 5 11 10 0 6 -2 10 -4 10 -3 0
-8 -4 -11 -10z"/>
<path d="M4640 1490 c8 -5 20 -10 25 -10 6 0 3 5 -5 10 -8 5 -19 10 -25 10 -5
0 -3 -5 5 -10z"/>
<path d="M1713 1475 c0 -8 4 -12 9 -9 5 3 6 10 3 15 -9 13 -12 11 -12 -6z"/>
<path d="M2513 1475 c0 -8 4 -12 9 -9 5 3 6 10 3 15 -9 13 -12 11 -12 -6z"/>
<path d="M4097 1470 c4 -16 2 -19 -11 -14 -9 3 -16 2 -16 -4 0 -6 8 -9 18 -8
19 3 29 31 13 40 -5 3 -7 -3 -4 -14z"/>
<path d="M4255 1481 c-3 -6 -15 -8 -27 -6 -11 3 -18 1 -14 -2 12 -13 35 -11
47 3 6 8 9 14 6 14 -3 0 -8 -4 -12 -9z"/>
<path d="M2146 1468 c3 -5 10 -6 15 -3 13 9 11 12 -6 12 -8 0 -12 -4 -9 -9z"/>
<path d="M2186 1472 c-3 -5 1 -9 9 -9 8 0 12 4 9 9 -3 4 -7 8 -9 8 -2 0 -6 -4
-9 -8z"/>
<path d="M2387 1469 c7 -7 15 -10 18 -7 3 3 -2 9 -12 12 -14 6 -15 5 -6 -5z"/>
<path d="M2710 1471 c0 -5 5 -13 10 -16 6 -3 10 -2 10 4 0 5 -4 13 -10 16 -5
3 -10 2 -10 -4z"/>
<path d="M4143 1466 c-3 -6 -3 -8 2 -4 4 4 13 0 20 -9 9 -13 14 -13 20 -3 6 9
4 11 -5 5 -9 -6 -12 -4 -8 7 7 17 -19 21 -29 4z"/>
<path d="M5147 1469 c7 -7 15 -10 18 -7 3 3 -2 9 -12 12 -14 6 -15 5 -6 -5z"/>
<path d="M2350 1466 c0 -2 8 -10 18 -17 15 -13 16 -12 3 4 -13 16 -21 21 -21
13z"/>
<path d="M2601 1463 c-1 -17 16 -25 25 -12 4 7 3 9 -4 5 -5 -3 -13 0 -15 6 -4
9 -6 10 -6 1z"/>
<path d="M5270 1466 c0 -2 8 -10 18 -17 15 -13 16 -12 3 4 -13 16 -21 21 -21
13z"/>
<path d="M1915 1449 c-3 -4 2 -6 10 -5 21 3 28 13 10 13 -9 0 -18 -4 -20 -8z"/>
<path d="M1999 1443 c-12 -16 -12 -17 2 -6 9 7 20 9 24 5 5 -4 5 -1 1 6 -9 16
-11 15 -27 -5z"/>
<path d="M2467 1449 c7 -7 15 -10 18 -7 3 3 -2 9 -12 12 -14 6 -15 5 -6 -5z"/>
<path d="M2631 1440 c-13 -11 -19 -20 -13 -20 6 0 17 7 25 15 8 8 18 11 22 7
5 -4 5 -1 1 6 -9 15 -6 15 -35 -8z"/>
<path d="M2673 1434 c-27 -30 -30 -42 -7 -23 15 12 16 11 10 -9 -4 -12 -3 -22
2 -22 5 0 9 10 9 23 1 42 3 48 15 41 7 -4 8 -3 4 4 -9 15 -7 16 -33 -14z"/>
<path d="M4111 1437 c-13 -21 -12 -21 5 -5 10 10 16 20 13 22 -3 3 -11 -5 -18
-17z"/>
<path d="M4196 1443 c-6 -14 -5 -15 5 -6 7 7 10 15 7 18 -3 3 -9 -2 -12 -12z"/>
<path d="M4349 1445 c5 -5 7 -18 6 -27 -2 -10 0 -20 5 -23 5 -3 7 3 5 12 -1
10 1 25 6 33 5 12 2 16 -11 16 -12 0 -16 -4 -11 -11z"/>
<path d="M4390 1456 c0 -2 7 -7 16 -10 8 -3 12 -2 9 4 -6 10 -25 14 -25 6z"/>
<path d="M4735 1450 c3 -5 8 -10 11 -10 2 0 4 5 4 10 0 6 -5 10 -11 10 -5 0
-7 -4 -4 -10z"/>
<path d="M4806 1452 c-3 -5 1 -9 9 -9 8 0 12 4 9 9 -3 4 -7 8 -9 8 -2 0 -6 -4
-9 -8z"/>
<path d="M2295 1440 c-4 -6 -10 -8 -14 -6 -4 3 -8 -1 -8 -9 0 -10 4 -12 12 -5
7 5 14 8 17 5 2 -3 5 2 5 10 0 18 -3 19 -12 5z"/>
<path d="M2832 1437 c10 -8 16 -16 14 -18 -3 -2 7 -5 20 -5 13 -1 24 3 24 9 0
6 -3 8 -6 4 -4 -3 -21 1 -38 9 -24 11 -27 12 -14 1z"/>
<path d="M4050 1438 c0 -10 2 -18 4 -18 2 0 11 -3 20 -6 9 -3 16 -1 16 6 0 6
-4 9 -9 5 -6 -3 -14 3 -20 12 -10 17 -10 17 -11 1z"/>
<path d="M4220 1444 c0 -5 7 -18 15 -28 8 -11 15 -16 15 -10 0 5 -7 18 -15 28
-8 11 -15 16 -15 10z"/>
<path d="M4255 1442 c18 -17 55 -24 55 -11 0 7 -3 10 -6 6 -3 -3 -18 -1 -33 4
-15 6 -22 6 -16 1z"/>
<path d="M4451 1437 c-8 -10 -7 -14 2 -14 8 0 14 6 14 14 0 7 -1 13 -2 13 -2
0 -8 -6 -14 -13z"/>
<path d="M4590 1446 c0 -2 8 -10 18 -17 15 -13 16 -12 3 4 -13 16 -21 21 -21
13z"/>
<path d="M2451 1424 c0 -11 3 -14 6 -6 3 7 2 16 -1 19 -3 4 -6 -2 -5 -13z"/>
<path d="M2540 1420 c-6 -11 -9 -20 -8 -20 2 0 11 9 21 20 9 11 13 20 7 20 -5
0 -14 -9 -20 -20z"/>
<path d="M2790 1412 c-8 -15 -16 -30 -18 -34 -2 -5 1 -8 7 -8 5 0 11 10 13 23
2 16 9 21 23 19 11 -2 16 1 10 5 -5 5 -13 12 -16 16 -3 4 -12 -5 -19 -21z"/>
<path d="M4386 1432 c-3 -5 1 -9 9 -9 8 0 12 4 9 9 -3 4 -7 8 -9 8 -2 0 -6 -4
-9 -8z"/>
<path d="M2510 1420 c-9 -6 -10 -10 -3 -10 6 0 15 5 18 10 8 12 4 12 -15 0z"/>
<path d="M2575 1421 c-3 -5 0 -13 6 -17 7 -4 9 -3 5 4 -3 5 0 13 6 15 9 4 10
6 1 6 -6 1 -14 -3 -18 -8z"/>
<path d="M4509 1413 c-13 -16 -12 -17 4 -4 9 7 17 15 17 17 0 8 -8 3 -21 -13z"/>
<path d="M4893 1415 c0 -8 4 -12 9 -9 5 3 6 10 3 15 -9 13 -12 11 -12 -6z"/>
<path d="M2345 1410 c-3 -6 1 -7 9 -4 18 7 21 14 7 14 -6 0 -13 -4 -16 -10z"/>
<path d="M2387 1403 c3 -7 6 -13 8 -13 2 0 5 6 8 13 3 8 -1 14 -8 14 -7 0 -11
-6 -8 -14z"/>
<path d="M4177 1414 c-3 -3 -3 -13 1 -22 5 -14 3 -15 -9 -5 -10 8 -19 9 -29 1
-13 -8 -12 -9 2 -5 9 3 22 -1 28 -8 19 -23 55 -12 57 16 2 21 1 21 -5 4 -10
-27 -38 -31 -38 -5 0 13 5 19 13 16 7 -3 13 -1 13 4 0 11 -23 14 -33 4z"/>
<path d="M4428 1409 c6 -9 9 -18 6 -22 -3 -3 2 -4 12 -3 10 2 19 8 20 15 2 7
1 7 -3 1 -3 -7 -13 -5 -26 7 -15 12 -18 13 -9 2z"/>
<path d="M2601 1393 c-1 -13 -7 -22 -13 -20 -7 1 -13 -9 -14 -23 -2 -22 -2
-22 3 -2 2 12 9 20 14 17 11 -8 23 20 16 37 -3 7 -6 3 -6 -9z"/>
<path d="M2632 1390 c0 -14 2 -19 5 -12 2 6 2 18 0 25 -3 6 -5 1 -5 -13z"/>
<path d="M4310 1408 c0 -2 9 -11 20 -21 11 -9 20 -13 20 -7 0 5 -9 14 -20 20
-11 6 -20 9 -20 8z"/>
<path d="M4534 1399 c-3 -6 -2 -15 3 -20 5 -5 9 -1 9 11 0 23 -2 24 -12 9z"/>
<path d="M2490 1388 c0 -4 4 -8 9 -8 6 0 12 4 15 8 3 5 -1 9 -9 9 -8 0 -15 -4
-15 -9z"/>
<path d="M2545 1389 c-4 -6 -4 -13 -1 -16 3 -4 6 -1 6 6 0 7 5 9 10 6 6 -3 10
-1 10 4 0 14 -17 14 -25 0z"/>
<path d="M4277 1381 c14 -17 33 -20 33 -5 0 3 -4 3 -9 0 -5 -3 -11 1 -15 9 -3
8 -10 15 -16 15 -5 0 -2 -9 7 -19z"/>
<path d="M4645 1389 c-3 -4 2 -6 10 -5 21 3 28 13 10 13 -9 0 -18 -4 -20 -8z"/>
<path d="M4695 1391 c-3 -5 -2 -12 3 -15 5 -3 9 1 9 9 0 17 -3 19 -12 6z"/>
<path d="M4870 1390 c0 -5 5 -10 11 -10 5 0 7 5 4 10 -3 6 -8 10 -11 10 -2 0
-4 -4 -4 -10z"/>
<path d="M2186 1370 c5 -8 9 -18 9 -22 0 -3 3 -9 7 -13 3 -4 5 0 4 9 -1 9 -8
22 -16 29 -10 10 -11 9 -4 -3z"/>
<path d="M2459 1378 c-9 -31 -6 -37 14 -27 32 17 35 22 8 14 -16 -5 -21 -4
-17 4 4 6 5 11 2 11 -3 0 -6 -1 -7 -2z"/>
<path d="M2515 1370 c-3 -5 -1 -10 4 -10 6 0 11 5 11 10 0 6 -2 10 -4 10 -3 0
-8 -4 -11 -10z"/>
<path d="M4100 1369 c0 -5 5 -7 12 -3 8 5 9 2 5 -10 -4 -10 -3 -15 3 -11 6 3
10 1 10 -6 0 -7 7 -4 16 7 14 18 15 18 9 -6 -5 -21 -4 -22 5 -7 14 22 3 42
-15 27 -9 -8 -14 -6 -19 5 -6 17 -26 21 -26 4z"/>
<path d="M4254 1365 c-4 -8 -10 -13 -15 -10 -4 3 -13 -5 -19 -17 -10 -21 -10
-21 3 -6 8 10 17 15 20 12 3 -3 10 4 17 15 6 12 8 21 5 21 -3 0 -8 -7 -11 -15z"/>
<path d="M4316 1365 c-9 -26 -7 -32 5 -12 6 10 9 21 6 23 -2 3 -7 -2 -11 -11z"/>
<path d="M2333 1355 c0 -8 3 -13 5 -10 3 3 12 -1 21 -7 10 -8 9 -4 -3 10 -23
26 -23 26 -23 7z"/>
<path d="M2421 1354 c0 -11 3 -14 6 -6 3 7 2 16 -1 19 -3 4 -6 -2 -5 -13z"/>
<path d="M3520 1360 c-8 -5 -12 -12 -9 -15 4 -3 12 1 19 10 14 17 11 19 -10 5z"/>
<path d="M4067 1344 c-14 -19 -15 -28 -7 -42 10 -15 10 -14 5 4 -4 17 -1 22
12 20 10 0 21 -8 25 -16 6 -11 7 -10 5 5 -2 14 -9 19 -22 17 -16 -3 -17 -2 -6
12 8 9 12 18 10 20 -2 2 -12 -7 -22 -20z"/>
<path d="M4428 1363 c7 -3 16 -2 19 1 4 3 -2 6 -13 5 -11 0 -14 -3 -6 -6z"/>
<path d="M4616 1357 c3 -10 9 -15 12 -12 3 3 0 11 -7 18 -10 9 -11 8 -5 -6z"/>
<path d="M1890 1350 c0 -5 5 -10 11 -10 5 0 7 5 4 10 -3 6 -8 10 -11 10 -2 0
-4 -4 -4 -10z"/>
<path d="M2236 1343 c-6 -14 -5 -15 5 -6 7 7 10 15 7 18 -3 3 -9 -2 -12 -12z"/>
<path d="M2600 1345 c-19 -22 -8 -25 13 -3 9 10 13 18 8 18 -5 0 -14 -7 -21
-15z"/>
<path d="M4526 1348 c3 -5 10 -6 15 -3 13 9 11 12 -6 12 -8 0 -12 -4 -9 -9z"/>
<path d="M4593 1345 c0 -8 4 -12 9 -9 5 3 6 10 3 15 -9 13 -12 11 -12 -6z"/>
<path d="M4660 1356 c0 -2 8 -10 18 -17 15 -13 16 -12 3 4 -13 16 -21 21 -21
13z"/>
<path d="M4719 1343 c-13 -16 -12 -17 4 -4 16 13 21 21 13 21 -2 0 -10 -8 -17
-17z"/>
<path d="M4930 1349 c0 -5 5 -7 10 -4 6 3 10 8 10 11 0 2 -4 4 -10 4 -5 0 -10
-5 -10 -11z"/>
<path d="M2632 1341 c-10 -6 -9 -10 7 -14 12 -3 24 0 28 5 3 6 1 8 -5 4 -5 -3
-12 -2 -14 4 -2 5 -9 6 -16 1z"/>
<path d="M3856 1342 c-3 -5 1 -13 9 -16 13 -5 14 -10 5 -28 -11 -22 -10 -22 4
-4 9 11 22 24 28 29 9 6 8 7 -4 3 -10 -3 -21 1 -26 11 -6 9 -12 12 -16 5z"/>
<path d="M4187 1338 c-12 -10 -14 -17 -6 -28 9 -13 10 -13 6 0 -2 8 3 20 12
27 9 7 13 13 10 13 -3 0 -13 -6 -22 -12z"/>
<path d="M4356 1341 c-3 -5 1 -11 9 -14 9 -4 12 -1 8 9 -6 16 -10 17 -17 5z"/>
<path d="M2388 1333 c7 -3 16 -2 19 1 4 3 -2 6 -13 5 -11 0 -14 -3 -6 -6z"/>
<path d="M2807 1324 c4 -12 3 -15 -5 -10 -7 4 -12 5 -12 2 0 -3 9 -10 19 -15
16 -9 18 -8 14 9 -3 11 -9 23 -14 26 -5 3 -6 -3 -2 -12z"/>
<path d="M2333 1315 c0 -8 4 -12 9 -9 5 3 6 10 3 15 -9 13 -12 11 -12 -6z"/>
<path d="M2541 1314 c0 -11 3 -14 6 -6 3 7 2 16 -1 19 -3 4 -6 -2 -5 -13z"/>
<path d="M2750 1315 c0 -8 4 -15 10 -15 5 0 7 7 4 15 -4 8 -8 15 -10 15 -2 0
-4 -7 -4 -15z"/>
<path d="M4231 1317 c-8 -10 -7 -14 2 -14 8 0 14 6 14 14 0 7 -1 13 -2 13 -2
0 -8 -6 -14 -13z"/>
<path d="M4273 1323 c-17 -6 -17 -20 0 -20 8 0 14 6 14 14 0 7 -1 13 -1 12 -1
0 -7 -3 -13 -6z"/>
<path d="M1806 1308 c3 -5 10 -6 15 -3 13 9 11 12 -6 12 -8 0 -12 -4 -9 -9z"/>
<path d="M2186 1312 c-2 -4 4 -8 14 -8 10 0 16 4 14 8 -3 4 -9 8 -14 8 -5 0
-11 -4 -14 -8z"/>
<path d="M2571 1304 c0 -11 3 -14 6 -6 3 7 2 16 -1 19 -3 4 -6 -2 -5 -13z"/>
<path d="M2613 1305 c0 -8 4 -12 9 -9 4 3 8 9 8 15 0 5 -4 9 -8 9 -5 0 -9 -7
-9 -15z"/>
<path d="M2670 1308 c0 -3 9 -6 20 -5 11 1 20 5 20 9 0 3 -9 6 -20 5 -11 -1
-20 -5 -20 -9z"/>
<path d="M2850 1305 c0 -8 2 -15 4 -15 2 0 6 7 10 15 3 8 1 15 -4 15 -6 0 -10
-7 -10 -15z"/>
<path d="M2902 1305 c-7 -8 -8 -15 -3 -15 5 0 13 5 16 10 4 6 11 7 17 4 7 -4
8 -2 4 4 -9 16 -18 15 -34 -3z"/>
<path d="M4120 1306 c0 -8 4 -17 9 -20 5 -4 7 3 4 14 -6 23 -13 26 -13 6z"/>
<path d="M4596 1303 c-6 -14 -5 -15 5 -6 7 7 10 15 7 18 -3 3 -9 -2 -12 -12z"/>
<path d="M4630 1309 c0 -5 5 -7 10 -4 6 3 10 8 10 11 0 2 -4 4 -10 4 -5 0 -10
-5 -10 -11z"/>
<path d="M2974 1299 c1 -7 10 -13 19 -15 9 -1 15 2 11 7 -3 5 -9 7 -14 4 -4
-3 -11 0 -13 5 -3 6 -4 5 -3 -1z"/>
<path d="M3987 1297 c-6 -15 27 -17 40 -2 5 4 2 5 -4 1 -7 -4 -13 -2 -13 3 0
15 -17 14 -23 -2z"/>
<path d="M2015 1289 c-3 -4 2 -6 10 -5 21 3 28 13 10 13 -9 0 -18 -4 -20 -8z"/>
<path d="M2467 1289 c7 -7 15 -10 18 -7 3 3 -2 9 -12 12 -14 6 -15 5 -6 -5z"/>
<path d="M2641 1286 c-9 -11 -9 -16 1 -22 7 -4 10 -4 6 1 -4 4 -3 14 3 22 6 7
9 13 6 13 -2 0 -10 -6 -16 -14z"/>
<path d="M2734 1293 c3 -6 -2 -16 -11 -22 -16 -9 -16 -10 3 -8 21 1 26 19 9
34 -4 4 -5 3 -1 -4z"/>
<path d="M2775 1291 c-9 -15 15 -25 28 -12 9 9 7 10 -7 5 -13 -5 -17 -4 -12 4
4 7 5 12 2 12 -3 0 -7 -4 -11 -9z"/>
<path d="M3093 1293 c4 -6 2 -13 -5 -15 -8 -3 -6 -6 4 -10 17 -7 19 15 3 29
-4 4 -5 3 -2 -4z"/>
<path d="M3139 1298 c-8 -28 -4 -34 22 -33 30 1 51 13 22 12 -35 0 -44 3 -38
13 3 6 4 10 1 10 -3 0 -6 -1 -7 -2z"/>
<path d="M3333 1288 c1 -7 -3 -12 -9 -11 -6 1 -11 -5 -11 -13 0 -12 4 -11 18
2 10 9 16 21 13 25 -8 13 -14 11 -11 -3z"/>
<path d="M3386 1292 c-3 -5 1 -9 9 -9 8 0 12 4 9 9 -3 4 -7 8 -9 8 -2 0 -6 -4
-9 -8z"/>
<path d="M3499 1298 c-6 -18 -3 -46 3 -42 5 4 7 13 4 21 -5 11 -2 13 9 9 9 -3
13 -2 10 4 -5 9 -24 14 -26 8z"/>
<path d="M3630 1290 c-13 -8 -12 -10 3 -10 9 0 17 5 17 10 0 12 -1 12 -20 0z"/>
<path d="M3897 1284 c4 -11 3 -15 -5 -10 -6 3 -14 1 -18 -6 -4 -7 -4 -10 1 -6
4 4 13 4 19 -2 8 -6 12 -3 13 10 1 11 -2 22 -8 25 -5 4 -6 -2 -2 -11z"/>
<path d="M4300 1290 c-8 -5 -10 -10 -5 -10 6 0 17 5 25 10 8 5 11 10 5 10 -5
0 -17 -5 -25 -10z"/>
<path d="M4340 1296 c0 -2 8 -10 18 -17 15 -13 16 -12 3 4 -13 16 -21 21 -21
13z"/>
<path d="M4720 1290 c-12 -7 -10 -9 7 -7 12 0 19 5 17 9 -6 10 -6 10 -24 -2z"/>
<path d="M2376 1277 c3 -10 9 -15 12 -12 3 3 0 11 -7 18 -10 9 -11 8 -5 -6z"/>
<path d="M2535 1279 c-4 -6 -14 -8 -24 -4 -13 5 -14 4 -3 -6 10 -11 15 -10 29
4 10 9 14 17 11 17 -4 0 -10 -5 -13 -11z"/>
<path d="M2956 1277 c3 -10 9 -15 12 -12 3 3 0 11 -7 18 -10 9 -11 8 -5 -6z"/>
<path d="M3020 1286 c0 -2 7 -7 16 -10 8 -3 12 -2 9 4 -6 10 -25 14 -25 6z"/>
<path d="M3590 1279 c0 -5 5 -7 10 -4 6 3 10 8 10 11 0 2 -4 4 -10 4 -5 0 -10
-5 -10 -11z"/>
<path d="M4171 1277 c-8 -10 -7 -14 2 -14 8 0 14 6 14 14 0 7 -1 13 -2 13 -2
0 -8 -6 -14 -13z"/>
<path d="M4249 1273 c-13 -16 -12 -17 4 -4 16 13 21 21 13 21 -2 0 -10 -8 -17
-17z"/>
<path d="M2110 1270 c0 -5 5 -10 11 -10 5 0 7 5 4 10 -3 6 -8 10 -11 10 -2 0
-4 -4 -4 -10z"/>
<path d="M2436 1263 c-6 -14 -5 -15 5 -6 7 7 10 15 7 18 -3 3 -9 -2 -12 -12z"/>
<path d="M2834 1265 c3 -23 12 -26 13 -5 1 11 -2 20 -7 20 -4 0 -7 -7 -6 -15z"/>
<path d="M2926 1272 c-3 -5 1 -9 9 -9 8 0 12 4 9 9 -3 4 -7 8 -9 8 -2 0 -6 -4
-9 -8z"/>
<path d="M3715 1270 c-3 -5 -1 -10 4 -10 6 0 11 5 11 10 0 6 -2 10 -4 10 -3 0
-8 -4 -11 -10z"/>
<path d="M3836 1263 c-6 -14 -5 -15 5 -6 7 7 10 15 7 18 -3 3 -9 -2 -12 -12z"/>
<path d="M4030 1268 c0 -6 3 -8 7 -5 3 4 11 2 18 -3 8 -7 12 -6 12 3 0 7 -9
14 -19 14 -10 1 -18 -3 -18 -9z"/>
<path d="M2335 1261 c-3 -5 -2 -12 3 -15 5 -3 9 1 9 9 0 17 -3 19 -12 6z"/>
<path d="M3389 1253 c-13 -16 -12 -17 4 -4 9 7 17 15 17 17 0 8 -8 3 -21 -13z"/>
<path d="M2213 1253 c4 -3 1 -13 -6 -22 -11 -14 -10 -14 5 -2 16 12 16 31 1
31 -4 0 -3 -3 0 -7z"/>
<path d="M2627 1249 c7 -7 15 -10 18 -7 3 3 -2 9 -12 12 -14 6 -15 5 -6 -5z"/>
<path d="M3950 1250 c0 -5 5 -10 11 -10 5 0 7 5 4 10 -3 6 -8 10 -11 10 -2 0
-4 -4 -4 -10z"/>
<path d="M4110 1249 c0 -5 5 -7 10 -4 6 3 10 8 10 11 0 2 -4 4 -10 4 -5 0 -10
-5 -10 -11z"/>
<path d="M4147 1249 c7 -7 15 -10 18 -7 3 3 -2 9 -12 12 -14 6 -15 5 -6 -5z"/>
<path d="M4435 1249 c-3 -4 2 -6 10 -5 21 3 28 13 10 13 -9 0 -18 -4 -20 -8z"/>
<path d="M4536 1252 c-2 -4 -1 -14 4 -22 7 -11 9 -9 7 8 -1 24 -3 26 -11 14z"/>
<path d="M4713 1235 c0 -8 4 -12 9 -9 5 3 6 10 3 15 -9 13 -12 11 -12 -6z"/>
<path d="M2553 1225 c0 -8 4 -12 9 -9 5 3 6 10 3 15 -9 13 -12 11 -12 -6z"/>
<path d="M3850 1236 c0 -2 7 -7 16 -10 8 -3 12 -2 9 4 -6 10 -25 14 -25 6z"/>
<path d="M4010 1229 c0 -5 5 -7 10 -4 6 3 10 8 10 11 0 2 -4 4 -10 4 -5 0 -10
-5 -10 -11z"/>
<path d="M4236 1223 c-6 -14 -5 -15 5 -6 7 7 10 15 7 18 -3 3 -9 -2 -12 -12z"/>
</g>
</svg>
